<?xml version="1.0" encoding="UTF-8"?>
<svg id="Calque_2" data-name="Calque 2" xmlns="http://www.w3.org/2000/svg" viewBox="0 0 259.27 260.91">
  <defs>
    <style>
      .cls-1 {
        fill: #fefdfc;
      }

      .cls-2 {
        fill: #efad65;
      }

      .cls-3 {
        fill: #db5e5a;
      }
    </style>
  </defs>
  <g id="Calque_1-2" data-name="Calque 1">
    <path class="cls-3" d="M108.06,231.77c-1.5,1.55-2.53,4.24-4.99,6.51-5.62,5.19-12.51,9.15-18.01,14.48,6.91,2.22,13.63,4.37,20.81,5.7,4.68.86,17.66,3.08,21.66,2.29,4.33-.85,21.46-23.35,24.75-28.25,44.84-66.76,40.64-161.44-14.2-221.25-1.83-2-8.85-9.59-10.47-10.52-3.78-2.19-21.52,1.22-26.74,2.37-5.73,1.26-11.04,3.69-16.81,4.69-.43,1.85.62,1.94,1.66,2.83,8.31,7.11,14.2,10.77,22.34,19.16-5.52,7.52-10.06,16-13.93,24.5,5.7,9.47,11.83,18.4,16.4,28.53,1,2.23,3.14,10.55,3.54,10.97,1.52,1.59,1.71-.36,2.09-1.4,4.13-11.33,6.59-23.62,13.9-33.61,24.76,44.11,25.43,99.43,1,144-2.36.33-3.88-4.12-4.72-5.79-4.78-9.57-6.67-18.19-10.18-27.82-.38-1.04-.57-2.99-2.09-1.4-.4.42-2.54,8.74-3.54,10.97-4.55,10.1-10.62,19.14-16.42,28.52,3.82,8.41,7.68,17.61,13.96,24.51ZM176.06,7.78c-.62-.61-14.67-4.27-16.78-4.73-5.85-1.28-12.26-2.35-18.22-2.27l16.58,21.06c.91.15,1.61-.22,2.39-.59,1.84-.87,12.61-9.33,14.76-11.19.49-.42,2.81-.76,1.27-2.28ZM23.05,202.77c-2.02,1.92,20.01,25.88,23.3,27.27,2.33.99,13.89-6.06,16.61-7.87,70.62-46.84,61.61-158.36-16.44-191.39-4.37,1.94-24.1,23.48-23.45,26.42,8.97,4,17.01,7.06,24.9,13.14,47.97,36.95,34.2,117.35-24.92,132.42ZM190.04,98.76c5.78-14.7,18.25-28.04,32.33-35.18,4.78-2.43,10.13-3.51,14.69-6.34.5-2.34-19.43-25.1-22.98-26.08-5.43-1.5-33.55,19.44-36.68,26.08l12.64,41.51ZM.11,122.68c.75,1.01,6.17.75,6.92,6.67,1.06,8.34-6.29,7.7-6.82,10-.31,1.36,1.8,13.86,2.3,16.45.47,2.44,3.42,15.45,4.99,15.73,31.32-6.16,44.8-43.89,23.57-68.29-5.03-5.78-15.74-13.19-23.55-13.52-2.11-.09-1.15.26-1.59,1.43-1.34,3.54-6.78,30.24-5.82,31.53ZM258.9,137.92c-.63-.98-4.97-.22-5.8-5.73-1.23-8.24,4.77-7.13,5.79-10.09,1.38-4.03-2.76-27.91-5.35-31.36-1.73-2.31-12.37,2.74-14.81,4.2-27.06,16.25-26.31,57.09,1.65,71.99,2.78,1.48,10.68,5.87,13.18,2.84,2.35-2.84,7.05-29.17,5.33-31.86ZM236.06,202.77c-16.68-3.6-30.94-15.27-40.41-29.1l-6.58-10.9c-.83,6.8-2.42,13.63-4.29,20.21-1.14,4.02-6.81,18.09-6.8,20.31.01,2.97,8.97,11.31,11.61,13.46,3.87,3.16,19.5,13.69,23.74,12.87,3.78-.73,20.07-19.1,21.98-23.11.58-1.22.95-2.37.76-3.73ZM175.05,252.75l-16.36-12.91-16.64,19.92c11.32-.25,22.3-3.8,33-7Z"/>
    <g>
      <path class="cls-2" d="M258.9,137.92c1.72,2.69-2.98,29.02-5.33,31.86-2.51,3.03-10.41-1.36-13.18-2.84-27.96-14.9-28.71-55.74-1.65-71.99,2.44-1.46,13.08-6.52,14.81-4.2,2.59,3.45,6.72,27.33,5.35,31.36-1.01,2.96-7.02,1.85-5.79,10.09.82,5.5,5.17,4.75,5.8,5.73Z"/>
      <path class="cls-2" d="M190.04,98.76l-12.64-41.51c3.13-6.65,31.26-27.58,36.68-26.08,3.55.98,23.48,23.74,22.98,26.08-4.56,2.83-9.91,3.91-14.69,6.34-14.08,7.14-26.54,20.47-32.33,35.18Z"/>
      <path class="cls-2" d="M236.06,202.77c.18,1.36-.18,2.52-.76,3.73-1.91,4.01-18.21,22.38-21.98,23.11-4.24.82-19.86-9.71-23.74-12.87-2.63-2.15-11.59-10.48-11.61-13.46,0-2.21,5.66-16.29,6.8-20.31,1.87-6.58,3.46-13.41,4.29-20.21l6.58,10.9c9.47,13.83,23.73,25.5,40.41,29.1Z"/>
      <path class="cls-2" d="M108.06,231.77c-6.27-6.9-10.14-16.11-13.96-24.51,5.81-9.38,11.87-18.42,16.42-28.52,1-2.23,3.14-10.55,3.54-10.97,1.52-1.59,1.71.36,2.09,1.4,3.51,9.63,5.4,18.25,10.18,27.82.84,1.67,2.36,6.12,4.72,5.79-6.37,11.61-14.32,20.02-23,29Z"/>
      <path class="cls-2" d="M130.06,58.77c-7.31,9.99-9.77,22.28-13.9,33.61-.38,1.04-.57,2.99-2.09,1.4-.4-.42-2.54-8.74-3.54-10.97-4.57-10.13-10.69-19.06-16.4-28.53,3.87-8.51,8.41-16.98,13.93-24.5,9.63,9.93,15.13,16.75,22,29Z"/>
      <path class="cls-2" d="M176.06,7.78c1.54,1.52-.78,1.86-1.27,2.28-2.14,1.86-12.92,10.32-14.76,11.19-.78.37-1.48.74-2.39.59L141.06.78c5.96-.09,12.37.99,18.22,2.27,2.1.46,16.16,4.12,16.78,4.73Z"/>
      <path class="cls-2" d="M175.05,252.75c-10.7,3.2-21.67,6.75-33,7l16.64-19.92,16.36,12.91Z"/>
      <g>
        <path class="cls-1" d="M108.06,29.77c-8.14-8.39-14.02-12.05-22.34-19.16-1.04-.89-2.09-.98-1.66-2.83,5.78-1,11.08-3.43,16.81-4.69,5.22-1.15,22.97-4.55,26.74-2.37,1.62.94,8.64,8.53,10.47,10.52,54.84,59.82,59.04,154.49,14.2,221.25-3.29,4.89-20.41,27.4-24.75,28.25-4.01.79-16.99-1.43-21.66-2.29-7.18-1.32-13.91-3.47-20.81-5.7,5.5-5.33,12.39-9.29,18.01-14.48,2.46-2.27,3.49-4.96,4.99-6.51,8.68-8.98,16.63-17.39,23-29,24.43-44.57,23.76-99.89-1-144-6.87-12.25-12.37-19.07-22-29Z"/>
        <path class="cls-1" d="M23.05,202.77c59.12-15.08,72.89-95.47,24.92-132.42-7.89-6.08-15.93-9.14-24.9-13.14-.65-2.94,19.08-24.48,23.45-26.42,78.06,33.03,87.06,144.55,16.44,191.39-2.73,1.81-14.29,8.86-16.61,7.87-3.29-1.4-25.32-25.35-23.3-27.27Z"/>
        <path class="cls-1" d="M.11,122.68c-.96-1.29,4.48-27.99,5.82-31.53.45-1.17-.52-1.52,1.59-1.43,7.81.33,18.52,7.73,23.55,13.52,21.23,24.4,7.74,62.13-23.57,68.29-1.57-.28-4.52-13.29-4.99-15.73-.5-2.59-2.61-15.09-2.3-16.45.53-2.29,7.88-1.66,6.82-10-.75-5.92-6.17-5.66-6.92-6.67Z"/>
      </g>
    </g>
  </g>
</svg>